<svg xmlns="http://www.w3.org/2000/svg" height="48" viewBox="0 -960 960 960" width="48"><path d="M80-698v-196h49v102q73-63 162.5-95.5T478.249-920q97.249 0 187.256 32.533Q755.512-854.933 830-792v-102h50v196H689v-49h120q-69-60-153.888-94T478-875q-91.168 0-175.084 34T150-747h120v49H80ZM421.634-40Q405-40 390-46.5t-26.051-17.45L158-270l56-57.803Q228-342 245.5-349.5T282-352l78 18v-326q0-42 29-71t71-29q42 0 71 29t29 71v180h26q5 0 9.308 1 4.307 1 9.692 3l147 66q24 11 35.5 35.324Q799-350.351 794-324l-36.119 217.882Q753-77 730.196-58.5 707.392-40 678-40H421.634ZM414-100h281l43-249-183-83h-55v-228q0-18-11-29t-29-11q-18 0-29 11t-11 29v399l-154-33-23 23 171 171Zm0 0h281-281Z"/></svg>